<?xml version="1.0" encoding="iso-8859-1"?>
<!-- Generator: Adobe Illustrator 17.1.0, SVG Export Plug-In . SVG Version: 6.00 Build 0)  -->
<!DOCTYPE svg PUBLIC "-//W3C//DTD SVG 1.1//EN" "http://www.w3.org/Graphics/SVG/1.1/DTD/svg11.dtd">
<svg version="1.1" id="Capa_1" xmlns="http://www.w3.org/2000/svg" xmlns:xlink="http://www.w3.org/1999/xlink" x="0px" y="0px"
	 viewBox="0 0 177 177" style="enable-background:new 0 0 177 177;" xml:space="preserve">
<path d="M168.965,152.515H8.036c-4.431,0-8.036-3.604-8.036-8.035V32.521c0-4.431,3.605-8.035,8.036-8.035h160.929
	c4.431,0,8.035,3.604,8.035,8.035v111.959C177,148.91,173.396,152.515,168.965,152.515z M8.036,29.485
	C6.362,29.485,5,30.847,5,32.521v111.959c0,1.674,1.362,3.035,3.036,3.035h160.929c1.674,0,3.035-1.361,3.035-3.035V32.521
	c0-1.674-1.361-3.035-3.035-3.035H8.036z M158.176,130.25h-43.667c-1.381,0-2.5-1.119-2.5-2.5s1.119-2.5,2.5-2.5h43.667
	c1.381,0,2.5,1.119,2.5,2.5S159.557,130.25,158.176,130.25z M58.075,130.25c-23.021,0-41.75-18.729-41.75-41.75
	s18.729-41.75,41.75-41.75s41.75,18.729,41.75,41.75S81.097,130.25,58.075,130.25z M58.075,51.75
	c-20.264,0-36.75,16.486-36.75,36.75s16.486,36.75,36.75,36.75s36.75-16.486,36.75-36.75S78.339,51.75,58.075,51.75z
	 M69.096,119.882c-0.019,0-0.036,0-0.054,0c-4.231-0.018-8.168-1.997-11.084-5.574c-4.038-4.951-3.639-13.141-3.217-16.778
	c-0.889-0.33-1.717-0.786-2.46-1.349c-0.858,0.122-3.211,0.648-5.22,2.871c-1.267,1.401-1.36,2.588-1.489,4.23
	c-0.151,1.909-0.357,4.522-3.073,6.679c-2.127,1.689-4.788,2.327-7.302,1.756c-3.465-0.79-6.429-3.678-8.81-8.586
	c-4.322-8.908-3.372-14.817-1.813-18.207c1.768-3.845,5.199-6.608,9.663-7.783c6.612-1.738,14.504,2.687,17.205,4.39
	c0.547-0.521,1.156-0.979,1.813-1.361c0.002-0.003,0.004-0.007,0.006-0.01c0.042-0.091,1.295-2.806,0.048-6.266
	c-0.641-1.776-1.644-2.417-3.032-3.305c-1.613-1.031-3.823-2.443-4.448-5.854c-0.489-2.67,0.197-5.32,1.886-7.269
	c2.327-2.686,6.27-3.946,11.723-3.734c9.893,0.378,14.66,3.997,16.918,6.966c2.561,3.368,3.385,7.697,2.32,12.188
	c-1.479,6.243-8.274,10.923-11.399,12.785c0.275,0.895,0.424,1.844,0.424,2.828c0,0.398-0.024,0.79-0.071,1.176
	c0.006,0.012,0.013,0.025,0.019,0.037c0.046,0.089,1.439,2.735,4.943,3.85c1.803,0.573,2.92,0.167,4.468-0.396
	c1.8-0.653,4.262-1.548,7.353,0.032c2.417,1.236,4.102,3.394,4.621,5.919c0.717,3.48-0.686,7.375-4.168,11.574
	C78.575,118.279,72.827,119.882,69.096,119.882z M59.725,97.983c-0.399,3.444-0.525,9.936,2.108,13.165
	c1.132,1.388,3.576,3.719,7.229,3.734c0.012,0,0.023,0,0.034,0c3.795,0,7.915-2.551,11.918-7.38c2.396-2.89,3.505-5.509,3.121-7.375
	c-0.291-1.412-1.379-2.157-2.001-2.475c-1.098-0.561-1.721-0.381-3.371,0.217c-1.801,0.653-4.267,1.547-7.688,0.459
	c-2.601-0.827-4.473-2.228-5.743-3.512C63.91,96.449,61.946,97.598,59.725,97.983z M37.452,81.745c-0.679,0-1.332,0.072-1.943,0.233
	c-1.731,0.456-4.865,1.715-6.392,5.036c-1.589,3.456-0.978,8.275,1.769,13.935c1.639,3.377,3.564,5.471,5.422,5.894
	c1.404,0.323,2.534-0.361,3.082-0.796c0.963-0.765,1.06-1.409,1.198-3.158c0.15-1.91,0.357-4.525,2.765-7.189
	c1.878-2.079,3.989-3.209,5.709-3.823c-0.396-1.051-0.611-2.189-0.611-3.376c0-0.937,0.135-1.843,0.386-2.7
	C46.457,84.298,41.5,81.745,37.452,81.745z M58.075,83.875c-2.55,0-4.625,2.075-4.625,4.625s2.075,4.625,4.625,4.625
	c2.55,0,4.625-2.075,4.625-4.625S60.625,83.875,58.075,83.875z M58.72,78.896c2.266,0.15,4.318,1.088,5.889,2.542
	c2.97-1.768,8.237-5.633,9.202-9.704c0.413-1.743,0.775-5.101-1.436-8.01c-2.302-3.028-6.842-4.755-13.129-4.996
	c-3.756-0.143-6.505,0.57-7.752,2.011c-0.943,1.09-0.873,2.406-0.747,3.094c0.222,1.209,0.744,1.598,2.223,2.542
	c1.614,1.032,3.825,2.445,5.043,5.822C58.939,74.768,58.966,77.107,58.72,78.896z M158.176,114.55h-43.667
	c-1.381,0-2.5-1.119-2.5-2.5s1.119-2.5,2.5-2.5h43.667c1.381,0,2.5,1.119,2.5,2.5S159.557,114.55,158.176,114.55z M158.176,98.85
	h-43.667c-1.381,0-2.5-1.119-2.5-2.5s1.119-2.5,2.5-2.5h43.667c1.381,0,2.5,1.119,2.5,2.5S159.557,98.85,158.176,98.85z
	 M158.176,83.15h-43.667c-1.381,0-2.5-1.119-2.5-2.5s1.119-2.5,2.5-2.5h43.667c1.381,0,2.5,1.119,2.5,2.5
	S159.557,83.15,158.176,83.15z M158.176,67.45h-43.667c-1.381,0-2.5-1.119-2.5-2.5s1.119-2.5,2.5-2.5h43.667
	c1.381,0,2.5,1.119,2.5,2.5S159.557,67.45,158.176,67.45z M158.176,51.75h-43.667c-1.381,0-2.5-1.119-2.5-2.5s1.119-2.5,2.5-2.5
	h43.667c1.381,0,2.5,1.119,2.5,2.5S159.557,51.75,158.176,51.75z"/>
<g>
</g>
<g>
</g>
<g>
</g>
<g>
</g>
<g>
</g>
<g>
</g>
<g>
</g>
<g>
</g>
<g>
</g>
<g>
</g>
<g>
</g>
<g>
</g>
<g>
</g>
<g>
</g>
<g>
</g>
</svg>
