<?xml version="1.0" standalone="no"?>
<!DOCTYPE svg PUBLIC "-//W3C//DTD SVG 1.1//EN" "http://www.w3.org/Graphics/SVG/1.1/DTD/svg11.dtd">
<svg class="icon" height="512" viewBox="0 0 1187 1024" version="1.1" xmlns="http://www.w3.org/2000/svg">
    <path d="M1012.695 0H134.466C60.577 0 0 59.635 0 132.992v315.38c0 73.356 60.004 133.523 134.466 133.523h878.803c73.889 0 134.466-59.594 134.466-133.524v-315.38C1147.162 59.636 1087.117 0 1012.695 0z m73.89 460.945c0 35.552-28.262 64.797-62.913 64.797H120.008c-34.61 0-62.871-29.245-62.871-64.797v-335.94c0-35.552 28.261-64.796 62.871-64.796h903.664c34.61 0 62.912 29.244 62.912 64.796v335.94z m-110.22-170.264H146.55a24.288 24.288 0 0 0-24.206 24.084c0 13.189 10.936 24.084 24.206 24.084h829.816a24.288 24.288 0 0 0 24.207-24.084 24.288 24.288 0 0 0-24.207-24.084z m0 96.867H146.55a24.288 24.288 0 0 0-24.206 24.084c0 13.188 10.936 24.083 24.206 24.083h829.816a24.288 24.288 0 0 0 24.207-24.083 24.288 24.288 0 0 0-24.207-24.084zM268.277 698.34c-15.564-41.86-53.655-56.768-58.283-58.448a24.165 24.165 0 0 0-31.129 14.336 23.96 23.96 0 0 0 14.418 30.923s21.298 8.602 29.408 29.818c6.963 18.35 1.72 43.006-14.418 72.25-56.522 99.202-5.201 162.81 30.023 182.88a24.37 24.37 0 0 0 12.082 3.44 25.23 25.23 0 0 0 21.38-12.041 24.247 24.247 0 0 0-8.682-33.259c-5.735-3.44-57.096-37.272-11.51-116.936 23.06-42.433 28.835-80.278 16.711-112.963z m323.162 0c-15.564-41.86-53.656-56.768-58.284-58.448a24.165 24.165 0 0 0-31.17 14.336 23.96 23.96 0 0 0 14.418 30.923s21.34 8.602 29.45 29.818c6.921 18.35 1.72 43.006-14.46 72.25-56.522 99.202-5.16 162.81 30.023 182.88a24.37 24.37 0 0 0 12.124 3.44 25.23 25.23 0 0 0 21.34-12.041 24.247 24.247 0 0 0-8.643-33.259c-5.775-3.44-57.137-37.272-11.55-116.936 23.1-42.433 28.875-80.278 16.752-112.963z m-156.953 30.965c-16.752-44.727-60.045-61.356-61.765-61.93a24.165 24.165 0 0 0-31.128 14.336 24.165 24.165 0 0 0 13.844 30.964s24.78 9.749 32.89 33.832c7.495 20.643 1.72 47.02-16.18 79.132-74.994 132.418 30.597 194.347 31.743 194.92a24.37 24.37 0 0 0 12.124 3.441 25.23 25.23 0 0 0 21.34-12.042 24.247 24.247 0 0 0-8.643-33.258c-6.963-4.014-63.485-41.286-13.27-129.019 25.394-45.873 31.742-85.971 19.045-120.376z m502.56 10.895a26.541 26.541 0 0 0 9.83-37.273 26.91 26.91 0 0 0-37.518-9.748 26.623 26.623 0 0 0-13.271 23.51l-40.385 23.51v-47.593c0-0.574 0.574-0.574 0.574-1.147a26.746 26.746 0 0 0 13.843-22.937 27.237 27.237 0 0 0-27.687-27.524 27.237 27.237 0 0 0-27.688 27.524c0 11.469 6.922 21.217 16.71 25.23v50.461l-47.306-26.95a27.32 27.32 0 0 0-13.27-23.51 27.893 27.893 0 0 0-37.519 9.748 27.524 27.524 0 0 0 9.83 37.272c8.643 5.16 19.046 4.014 27.115 0l42.72 24.083-42.72 24.084a26.992 26.992 0 0 0-27.115 0 26.541 26.541 0 0 0-9.83 37.272 26.91 26.91 0 0 0 37.518 9.748 26.623 26.623 0 0 0 13.27-23.51l47.308-26.95v49.887a27.155 27.155 0 0 0-16.711 25.23c0 15.482 12.123 27.524 27.688 27.524 15.564 0 27.687-12.042 27.687-27.524a26.377 26.377 0 0 0-14.417-23.51v-47.594l40.385 23.51c0 9.175 4.628 18.35 13.27 23.51 13.271 7.455 30.023 2.868 37.518-9.748a27.524 27.524 0 0 0-9.83-37.272c-8.6-5.16-19.004-4.014-27.073 0l-42.72-24.083 42.72-24.084c8.069 2.867 18.431 4.014 27.114-1.146z" />
</svg>